<svg xmlns="http://www.w3.org/2000/svg" xmlns:xlink="http://www.w3.org/1999/xlink" viewBox="0 0 160.89 213.34"><defs><style>.cls-1{fill:url(#linear-gradient);}</style><linearGradient id="linear-gradient" x1="80.44" y1="175.13" x2="80.44" y2="-45" gradientUnits="userSpaceOnUse"><stop offset="0" stop-color="#da0047"/><stop offset="0.32" stop-color="#b6003d"/><stop offset="0.72" stop-color="#8e0031"/><stop offset="0.94" stop-color="#7e002c"/></linearGradient></defs><g id="Layer_2" data-name="Layer 2"><g id="OBJECTS"><path class="cls-1" d="M160.89,107.38v23.17c-18.64,22.8-28.83,28.74-28.83,58.19L112,213.34v-35.7a31.34,31.34,0,0,0-9.23-22.26l-.07-.07A26.64,26.64,0,0,1,94.4,136.5v-9.92h22.3a17.46,17.46,0,0,0,17.46-17.46V88.89L98.3,101.83a52.44,52.44,0,0,1-35.76,0L26.73,88.89v20.23a17.44,17.44,0,0,0,17.41,17.46H66.49v10a24.92,24.92,0,0,1-7.67,18.22,31.25,31.25,0,0,0-9.88,22.89v35.7l-20.12-24.6c0-29.45-10.18-35.39-28.82-58.19V107.38a36,36,0,0,1,10.59-25.5,73.82,73.82,0,0,1,38.68-65L80.42,0l31.15,16.89a73.86,73.86,0,0,1,38.73,65A36,36,0,0,1,160.89,107.38Z"/></g></g></svg>